# xmcd
#
# Track frame offsets:
#	150
#	15502
#	32307
#	46741
#	58977
#	70574
#	86102
#	99151
#	113543
#	127620
#	141505
#	158937
#	170224
#	185973
#	203738
#
# Disc length: 2914 seconds
#
# Revision: 0
# Processed by: cddbd v1.5.1PL0 Copyright (c) Steve Scherf et al.
# Submitted via: dBpowerAMP V4.0
#
DISCID=c40b600f
DTITLE=Dolly Parton - Best Of
DYEAR=2004
DGENRE=Country
TTITLE0=My Tennessee Mountain Home
TTITLE1=Jolene
TTITLE2=Coat Of Many Colors
TTITLE3=To Daddy
TTITLE4=Whyd'd you Come in Here Lookin' Like That
TTITLE5=Rockin' Years (with Ricky Van Shelton)
TTITLE6=Applejack
TTITLE7=Eagle When She Flies
TTITLE8=Something Special
TTITLE9=The Seeker
TTITLE10=Silver And Gold
TTITLE11=Put A Little Love In Your Heart
TTITLE12=Slowdancing With The Moon
TTITLE13=Yellow Roses
TTITLE14=I Will Always Love You (With Vince Gill)
EXTD=Best Of Dolly Parton
EXTT0=
EXTT1=
EXTT2=
EXTT3=
EXTT4=
EXTT5=
EXTT6=
EXTT7=
EXTT8=
EXTT9=
EXTT10=
EXTT11=
EXTT12=
EXTT13=
EXTT14=
PLAYORDER=
